<svg xmlns="http://www.w3.org/2000/svg" width="150" height="150" viewBox="0 0 150 150"><rect width="100%" height="100%" fill="#DDDDDD"/><path fill="#999999" d="M36.12 77.62h7.13l-2.73-7.46q-.2-.49-.42-1.18-.21-.68-.43-1.47-.2.79-.42 1.48t-.42 1.2zm5.69-13.95 8.8 22.41h-3.22q-.55 0-.89-.27t-.51-.68l-1.67-4.57h-9.29l-1.67 4.57q-.12.36-.48.66-.36.29-.88.29h-3.26l8.82-22.41zm21.84 6.51h3.02l-6.31 15.9h-3.47l-6.31-15.9h3.16q.44 0 .72.2.29.2.38.51l3.07 8.49q.25.75.44 1.46.18.71.32 1.43.16-.72.34-1.43.19-.71.45-1.46l3.13-8.49q.11-.31.39-.51t.67-.2M77.1 81.97v-2.68q-1.66.08-2.79.29t-1.81.53q-.68.33-.98.76-.29.44-.29.95 0 1.01.59 1.44.6.43 1.56.43 1.18 0 2.04-.42.86-.43 1.68-1.3m-8.09-8.35-.68-1.23q2.74-2.51 6.6-2.51 1.4 0 2.5.46t1.86 1.27 1.15 1.95q.4 1.13.4 2.48v10.04H79.1q-.54 0-.84-.16-.29-.17-.46-.66l-.34-1.15q-.61.54-1.18.95-.57.42-1.19.69-.62.28-1.33.43-.7.15-1.56.15-1 0-1.86-.27-.85-.27-1.47-.82-.62-.54-.96-1.35-.34-.8-.34-1.87 0-.61.2-1.2.2-.6.66-1.14t1.18-1.02q.73-.49 1.79-.84 1.07-.36 2.48-.58 1.41-.23 3.22-.27v-.93q0-1.6-.68-2.37t-1.97-.77q-.93 0-1.54.22t-1.08.49q-.46.27-.84.49t-.85.22q-.4 0-.68-.21t-.45-.49m20.72 12.71q-2.07 0-3.18-1.17t-1.11-3.23v-8.89h-1.63q-.31 0-.52-.2-.22-.2-.22-.6v-1.52l2.56-.42.8-4.34q.08-.31.3-.48.21-.17.55-.17h1.99v5.01h4.25v2.72h-4.25v8.62q0 .75.36 1.17.37.41 1 .41.36 0 .6-.08.24-.09.42-.18t.32-.18q.13-.08.27-.08.17 0 .28.08.11.09.24.26l1.14 1.86q-.83.7-1.92 1.05-1.08.36-2.25.36m14.64-4.36v-2.68q-1.66.08-2.79.29-1.14.21-1.82.53-.68.33-.97.76-.3.44-.3.95 0 1.01.6 1.44.59.43 1.56.43 1.17 0 2.03-.42.86-.43 1.69-1.3m-8.1-8.35-.68-1.23q2.75-2.51 6.61-2.51 1.39 0 2.49.46t1.86 1.27 1.16 1.95q.39 1.13.39 2.48v10.04h-1.74q-.54 0-.83-.16-.3-.17-.47-.66l-.34-1.15q-.6.54-1.18.95-.57.42-1.19.69-.62.28-1.32.43-.71.15-1.56.15-1.01 0-1.86-.27-.86-.27-1.48-.82-.62-.54-.96-1.35-.34-.8-.34-1.87 0-.61.2-1.2.21-.6.66-1.14.46-.54 1.19-1.02.73-.49 1.79-.84 1.06-.36 2.47-.58 1.41-.23 3.23-.27v-.93q0-1.6-.69-2.37-.68-.77-1.97-.77-.93 0-1.54.22t-1.07.49l-.85.49q-.38.22-.84.22-.41 0-.69-.21t-.45-.49m18.81-2.48.23 1.8q.74-1.43 1.77-2.24 1.02-.82 2.41-.82 1.1 0 1.77.48l-.25 2.87q-.08.28-.22.4-.15.11-.4.11-.23 0-.69-.08-.45-.07-.89-.07-.63 0-1.13.18-.5.19-.89.54-.4.35-.7.84-.3.5-.56 1.13v9.8h-3.83v-15.9h2.24q.59 0 .83.21.23.21.31.75"/></svg>