<svg xmlns="http://www.w3.org/2000/svg" width="300" height="200" viewBox="0 0 300 200"><rect width="100%" height="100%" fill="#DDDDDD"/><path fill="#999999" d="M64.355 88.96v18.07h-3.38V88.96zm6.64 18.07h-3.09V94.2h1.89q.6 0 .78.57l.2.95q.34-.38.71-.69t.79-.54q.42-.22.9-.35.48-.14 1.05-.14 1.22 0 2 .66t1.17 1.74q.3-.63.75-1.09t.98-.74q.54-.29 1.15-.43.6-.14 1.22-.14 1.06 0 1.88.33.83.32 1.39.95.56.62.86 1.52.29.9.29 2.07v8.16h-3.09v-8.16q0-1.23-.53-1.85-.54-.62-1.58-.62-.47 0-.88.17-.41.16-.71.47-.31.3-.48.77-.18.46-.18 1.06v8.16h-3.1v-8.16q0-1.29-.52-1.88t-1.52-.59q-.67 0-1.25.34-.58.33-1.08.9zm24.62-3.31v-2.17q-1.34.07-2.25.24-.91.16-1.46.43-.55.26-.79.61t-.24.76q0 .81.48 1.17.49.34 1.26.34.95 0 1.64-.34.7-.34 1.36-1.04m-6.52-6.74-.55-.99q2.21-2.02 5.32-2.02 1.13 0 2.01.37.89.36 1.5 1.02.62.66.93 1.57.32.91.32 2v8.1h-1.4q-.43 0-.67-.13t-.38-.53l-.27-.93q-.49.44-.95.77t-.96.56q-.5.22-1.07.34t-1.26.12q-.81 0-1.5-.22t-1.19-.66q-.5-.43-.77-1.08-.28-.65-.28-1.52 0-.48.17-.96.16-.49.53-.92.37-.44.95-.83.59-.39 1.45-.67.85-.29 1.99-.47t2.6-.22v-.75q0-1.29-.55-1.91t-1.59-.62q-.75 0-1.24.18-.49.17-.87.39-.37.22-.68.4-.31.17-.68.17-.33 0-.55-.17-.23-.17-.36-.39m17.12 3.32q.58 0 1-.15.43-.16.71-.43.28-.28.42-.67.15-.38.15-.85 0-.95-.57-1.5-.57-.56-1.71-.56t-1.71.56q-.56.55-.56 1.5 0 .45.14.84t.42.67q.29.28.72.44.43.15.99.15m3.49 7.31q0-.38-.23-.62-.22-.24-.61-.37t-.91-.19q-.51-.06-1.1-.09-.58-.04-1.2-.06-.61-.03-1.2-.1-.51.29-.83.67-.32.39-.32.91 0 .33.17.63.17.29.53.5.37.22.96.33.59.12 1.44.12.86 0 1.49-.13.62-.13 1.03-.36.4-.23.59-.55t.19-.69m-.61-12.97h3.68v1.15q0 .55-.66.68l-1.15.21q.26.66.26 1.45 0 .95-.38 1.72t-1.05 1.3q-.68.54-1.6.84-.92.29-1.98.29-.37 0-.72-.04t-.69-.1q-.6.36-.6.81 0 .39.35.57.36.18.95.26.59.07 1.34.09t1.53.08q.79.07 1.54.22.75.16 1.34.5t.94.92q.36.58.36 1.49 0 .85-.42 1.65t-1.21 1.43q-.8.62-1.95 1-1.16.38-2.63.38-1.45 0-2.53-.28-1.07-.28-1.79-.75-.71-.47-1.06-1.08t-.35-1.27q0-.9.54-1.51.55-.61 1.5-.97-.51-.26-.81-.7t-.3-1.15q0-.29.1-.59.11-.31.31-.61.21-.3.52-.57.32-.27.74-.48-.97-.53-1.53-1.4-.56-.88-.56-2.05 0-.95.38-1.72.39-.77 1.07-1.31.68-.55 1.61-.83.93-.29 2.03-.29.83 0 1.55.17.73.17 1.33.49m8.07 4.5h5.83q0-.6-.17-1.13t-.51-.93-.86-.63q-.51-.23-1.2-.23-1.34 0-2.11.76t-.98 2.16m7.88 1.86h-7.94q.07.99.35 1.71.27.72.72 1.19t1.07.7 1.37.23 1.29-.18q.55-.17.95-.38.41-.22.72-.39.3-.18.59-.18.39 0 .58.29l.88 1.13q-.51.6-1.15 1-.63.41-1.33.65-.69.25-1.41.35t-1.39.1q-1.34 0-2.49-.45-1.15-.44-2-1.31t-1.34-2.15-.49-2.97q0-1.31.43-2.47.42-1.15 1.22-2.01.79-.86 1.93-1.36 1.15-.5 2.59-.5 1.21 0 2.23.39 1.03.39 1.77 1.13.73.75 1.15 1.83t.42 2.47q0 .7-.15.94t-.57.24m6.12 6.03h-3.09V94.2h1.89q.6 0 .79.57l.2.95q.34-.38.7-.69.37-.31.79-.54.42-.22.9-.35.48-.14 1.06-.14 1.21 0 1.99.66t1.17 1.74q.3-.63.75-1.09t.99-.74q.54-.29 1.14-.43.61-.14 1.22-.14 1.06 0 1.89.33.82.32 1.39.95.56.62.85 1.52.3.9.3 2.07v8.16h-3.09v-8.16q0-1.23-.54-1.85t-1.57-.62q-.48 0-.89.17-.4.16-.71.47-.3.3-.48.77-.17.46-.17 1.06v8.16h-3.1v-8.16q0-1.29-.52-1.88t-1.52-.59q-.68 0-1.26.34-.58.33-1.08.9zm27.79-18.07v18.07h-3.38V88.96zm6.22 5.81.22 1.01q.38-.39.81-.72.44-.33.92-.56t1.03-.36q.55-.14 1.2-.14 1.05 0 1.86.36t1.36 1q.54.64.82 1.54.28.89.28 1.97v8.16h-3.08v-8.16q0-1.18-.54-1.82-.54-.65-1.64-.65-.8 0-1.5.37-.7.36-1.32.98v9.28h-3.09V94.2h1.89q.6 0 .78.57m20.55-.57h2.44l-5.09 12.83h-2.8l-5.08-12.83h2.55q.35 0 .58.17.23.16.3.41l2.48 6.85q.2.6.35 1.17.15.58.26 1.15.13-.57.28-1.15.15-.57.36-1.17l2.52-6.85q.09-.25.32-.41.22-.17.53-.17m10.85 9.52v-2.17q-1.33.07-2.25.24-.91.16-1.46.43-.55.26-.79.61-.23.35-.23.76 0 .81.48 1.17.48.34 1.25.34.95 0 1.65-.34.69-.34 1.35-1.04m-6.52-6.74-.55-.99q2.21-2.02 5.32-2.02 1.13 0 2.02.37.88.36 1.5 1.02.61.66.93 1.57t.32 2v8.1h-1.4q-.44 0-.68-.13t-.37-.53l-.28-.93q-.49.44-.95.77t-.96.56q-.5.22-1.07.34t-1.26.12q-.81 0-1.5-.22-.68-.22-1.18-.66-.5-.43-.78-1.08-.27-.65-.27-1.52 0-.48.16-.96.16-.49.53-.92.37-.44.96-.83.58-.39 1.44-.67.86-.29 1.99-.47 1.14-.18 2.6-.22v-.75q0-1.29-.55-1.91t-1.58-.62q-.75 0-1.25.18-.49.17-.87.39-.37.22-.68.4-.3.17-.68.17-.32 0-.55-.17-.22-.17-.36-.39m5.81-8.23h3l-3.09 3.27q-.23.25-.45.34t-.57.09h-1.85l1.77-3.03q.19-.33.44-.5t.75-.17m6.66-.29h3.09v18.57h-3.09zm6.28 5.74h3.1v12.83h-3.1zm3.52-3.73q0 .4-.16.75t-.43.61-.63.42q-.36.15-.78.15-.4 0-.75-.15-.36-.16-.62-.42t-.42-.61-.16-.75q0-.42.16-.78t.42-.62q.26-.27.62-.42.35-.16.75-.16.42 0 .78.16.36.15.63.42.27.26.43.62t.16.78m10.78 12.76v-5.75q-.53-.64-1.14-.9-.62-.26-1.34-.26-.7 0-1.26.26t-.96.79-.61 1.35q-.22.82-.22 1.93 0 1.13.19 1.91.18.78.51 1.28.34.49.83.71t1.09.22q.96 0 1.63-.4.68-.4 1.28-1.14m0-14.77h3.09v18.57h-1.89q-.61 0-.78-.56l-.26-1.24q-.77.89-1.78 1.44t-2.34.55q-1.05 0-1.93-.44-.87-.44-1.5-1.27-.64-.83-.98-2.06-.34-1.22-.34-2.8 0-1.42.38-2.65.39-1.22 1.12-2.12.72-.9 1.73-1.41 1.02-.5 2.28-.5 1.07 0 1.84.33.76.34 1.36.92zm12.91 15.26v-2.17q-1.34.07-2.25.24-.91.16-1.46.43-.55.26-.79.61t-.24.76q0 .81.49 1.17.48.34 1.25.34.95 0 1.64-.34.7-.34 1.36-1.04m-6.52-6.74-.55-.99q2.21-2.02 5.32-2.02 1.13 0 2.01.37.89.36 1.5 1.02.62.66.94 1.57.31.91.31 2v8.1h-1.4q-.43 0-.67-.13t-.38-.53l-.27-.93q-.49.44-.95.77t-.96.56q-.5.22-1.07.34t-1.26.12q-.81 0-1.5-.22t-1.19-.66q-.5-.43-.77-1.08-.28-.65-.28-1.52 0-.48.17-.96.16-.49.53-.92.37-.44.95-.83.59-.39 1.45-.67.85-.29 1.99-.47t2.6-.22v-.75q0-1.29-.55-1.91t-1.59-.62q-.75 0-1.24.18-.49.17-.87.39-.37.22-.68.4-.31.17-.68.17-.33 0-.55-.17-.23-.17-.36-.39"/></svg>